<svg xmlns="http://www.w3.org/2000/svg" viewBox="0 0 23.952 19.464"><defs><style>.a{fill:#fff;}</style></defs><g transform="translate(0)"><path class="a" d="M7.03,19.431A27.191,27.191,0,0,1,.005,17.887c-.156-.177,3.151-.472,5.564-1.571S7.555,15.048,7.427,15.1a2.106,2.106,0,0,1-1.858-.259,11.668,11.668,0,0,1-2.73-2.13,3.509,3.509,0,0,1-.895-1.231,4.889,4.889,0,0,0,1.4.4,4.593,4.593,0,0,0,1.526-.157c.115-.1-2.515-.695-3.418-2.617a5.285,5.285,0,0,1-.775-2.61,3.488,3.488,0,0,0,1.27.763,3.364,3.364,0,0,0,1.188.221c.175-.03-2.021-1.326-2.125-3.5A14.335,14.335,0,0,1,1.271.282,8.468,8.468,0,0,0,2.735,2.171c.671.522,3.042,2.765,5.151,3.214A17.181,17.181,0,0,0,11.5,5.9a5.05,5.05,0,0,1-.084-.924A4.951,4.951,0,0,1,16.339,0a4.884,4.884,0,0,1,3.65,1.64L20,1.633S22.912.511,23.077.439s-.269.926-.473,1.193a7.806,7.806,0,0,1-1.32,1.46,5.015,5.015,0,0,0,.525-.041,10.741,10.741,0,0,0,2.125-.745c.167.031-.96,1.5-1.43,1.869a12.133,12.133,0,0,1-1.246.9c-.008.649-.1,4.449-1.165,6.211l-.012.02-.008.018c-1.152,2.571-3.454,5.16-4.975,5.864v0s-3.97,2.274-7.386,2.274C7.482,19.464,7.254,19.453,7.03,19.431Z"/></g></svg>