<svg xmlns="http://www.w3.org/2000/svg" viewBox="0 0 96 80"><defs><style>.a,.b,.d{fill:none;}.a{stroke:#fff;stroke-width:2px;}.c,.e{stroke:none;}.e{fill:#fff;}</style></defs><g transform="translate(-128 -88)"><g transform="translate(-1 -1)"><path class="a" d="M13062-2242h40v56h-40" transform="translate(-12878 2353)"/><path class="a" d="M13062-2218h32l8-8" transform="translate(-12878 2353)"/><g class="a" transform="translate(192 119)"><circle class="c" cx="4" cy="4" r="4"/><circle class="d" cx="4" cy="4" r="3"/></g></g><g class="b" transform="translate(-12870 2354)"><path class="c" d="M12998-2266v80h56v-72l-8-8Z"/><path class="e" d="M 13000 -2264 L 13000 -2188 L 13052 -2188 L 13052 -2257.171630859375 L 13045.171875 -2264 L 13000 -2264 M 12998 -2266 L 13046 -2266 L 13054 -2258 L 13054 -2186 L 12998 -2186 L 12998 -2266 Z"/></g><path class="a" d="M13006-2250h40" transform="translate(-12870 2354)"/><path class="a" d="M13006-2234h40" transform="translate(-12870 2354)"/><path class="a" d="M13006-2218h40" transform="translate(-12870 2354)"/><path class="a" d="M13006-2202h40" transform="translate(-12870 2354)"/></g></svg>