<svg xmlns="http://www.w3.org/2000/svg" viewBox="0 0 96.696 80"><defs><style>.a{fill:none;}.b,.d{fill:#fff;}.c,.d{stroke:none;}</style></defs><g transform="translate(-327.304 -144)"><g class="a" transform="translate(13213.306 -2210)"><path class="c" d="M-12870,2428a40.352,40.352,0,0,1,12.9-26.272,40.376,40.376,0,0,1,16.288-9.165A20.98,20.98,0,0,1-12850.3,2375a21,21,0,0,1,21-21,21,21,0,0,1,21,21,20.98,20.98,0,0,1-9.7,17.7,40.377,40.377,0,0,1,15.807,9.025A40.334,40.334,0,0,1-12789.3,2428v0Z"/><path class="d" d="M -12791.5439453125 2426.0009765625 C -12792.7900390625 2417.270751953125 -12797.0048828125 2409.240234375 -12803.5546875 2403.1982421875 C -12805.7080078125 2401.2109375 -12808.083984375 2399.471435546875 -12810.6171875 2398.0283203125 C -12813.1298828125 2396.59619140625 -12815.8095703125 2395.449462890625 -12818.5791015625 2394.619384765625 L -12822.7568359375 2393.36767578125 L -12819.08203125 2391.0185546875 C -12816.4423828125 2389.3310546875 -12814.2392578125 2386.995849609375 -12812.7109375 2384.265380859375 C -12811.1357421875 2381.451416015625 -12810.302734375 2378.247802734375 -12810.302734375 2375.000732421875 C -12810.302734375 2369.92529296875 -12812.279296875 2365.15380859375 -12815.8681640625 2361.56494140625 C -12819.45703125 2357.97607421875 -12824.228515625 2355.999755859375 -12829.3037109375 2355.999755859375 C -12834.3779296875 2355.999755859375 -12839.1484375 2357.97607421875 -12842.7373046875 2361.56494140625 C -12846.3251953125 2365.15380859375 -12848.3017578125 2369.925537109375 -12848.3017578125 2375.000732421875 C -12848.3017578125 2381.420654296875 -12845.0927734375 2387.361328125 -12839.71875 2390.891845703125 L -12836.0732421875 2393.286376953125 L -12840.2666015625 2394.486328125 C -12843.1240234375 2395.303955078125 -12845.88671875 2396.456298828125 -12848.478515625 2397.91162109375 C -12851.08984375 2399.3779296875 -12853.5361328125 2401.15673828125 -12855.7490234375 2403.198974609375 C -12862.2958984375 2409.23583984375 -12866.5107421875 2417.26611328125 -12867.7607421875 2426.0009765625 L -12791.5439453125 2426.0009765625 M -12789.3046875 2428.0009765625 L -12870.0009765625 2428.0009765625 C -12869.138671875 2417.93310546875 -12864.55859375 2408.601806640625 -12857.1044921875 2401.728515625 C -12852.4111328125 2397.397705078125 -12846.8349609375 2394.28564453125 -12840.81640625 2392.5634765625 C -12846.529296875 2388.810791015625 -12850.3017578125 2382.345703125 -12850.3017578125 2375.000732421875 C -12850.3017578125 2363.402099609375 -12840.8994140625 2353.999755859375 -12829.3037109375 2353.999755859375 C -12817.705078125 2353.999755859375 -12808.302734375 2363.402099609375 -12808.302734375 2375.000732421875 C -12808.302734375 2382.4384765625 -12812.169921875 2388.97314453125 -12818.0048828125 2392.70361328125 C -12812.1708984375 2394.45166015625 -12806.7666015625 2397.5126953125 -12802.1982421875 2401.728515625 C -12794.7431640625 2408.605224609375 -12790.1630859375 2417.93310546875 -12789.3046875 2427.997802734375 L -12789.3046875 2428.0009765625 Z"/></g><path class="b" d="M-12870,2428a40.352,40.352,0,0,1,12.9-26.272,40.376,40.376,0,0,1,16.288-9.165A20.98,20.98,0,0,1-12850.3,2375a21,21,0,0,1,21-21,21,21,0,0,1,21,21,20.98,20.98,0,0,1-9.7,17.7,40.377,40.377,0,0,1,15.807,9.025A40.334,40.334,0,0,1-12789.3,2428v0Z" transform="translate(13197.306 -2204.001)"/></g></svg>