<svg xmlns="http://www.w3.org/2000/svg" viewBox="0 0 80 80"><defs><style>.a,.c,.e{fill:none;}.a,.c{stroke:#fff;stroke-width:2px;}.a{stroke-dasharray:9;}.b{fill:#fff;}.d{stroke:none;}</style></defs><g transform="translate(-104 -176)"><g class="a" transform="translate(104 176)"><circle class="d" cx="40" cy="40" r="40"/><circle class="e" cx="40" cy="40" r="39"/></g><path class="b" d="M-12850,2378h-16a4.006,4.006,0,0,1-4-4v-16a4.006,4.006,0,0,1,4-4h16a4.006,4.006,0,0,1,4,4v16A4.006,4.006,0,0,1-12850,2378Zm-8-18a4.006,4.006,0,0,0-4,4,4,4,0,0,0,2.723,3.789L-12862,2373h8l-2.619-5.245A4.014,4.014,0,0,0-12854,2364,4,4,0,0,0-12858,2360Z" transform="translate(13002 -2146)"/><g class="c" transform="translate(136 200)"><rect class="d" width="16" height="12" rx="2"/><rect class="e" x="1" y="1" width="14" height="10" rx="1"/></g></g></svg>