<svg xmlns="http://www.w3.org/2000/svg" viewBox="0 0 97 81"><defs><style>.a{fill:#fff;}.b{fill:none;stroke:#fff;stroke-width:2px;}</style></defs><g transform="translate(-216 -72)"><path class="a" d="M13054-2266l-16-16-24,16Z" transform="translate(-12774 2354)"/><path class="a" d="M12982-2258l-16,16,16,16Z" transform="translate(-12750 2354)"/><path class="b" d="M12982-2266v64h80v-64Z" transform="translate(-12750 2354)"/><path class="b" d="M13110-2234h27.883" transform="translate(-12869.999 2354)"/><path class="b" d="M13110-2234h27.883" transform="translate(-12869.999 2338)"/><path class="b" d="M13110-2234h27.987" transform="translate(-12833.987 2354)"/><path class="b" d="M13110-2234h27.987" transform="translate(-12833.987 2338)"/><path class="b" d="M13110-2226h27.883" transform="translate(-12869.999 2354)"/><path class="b" d="M13110-2226h27.883" transform="translate(-12869.999 2338)"/><path class="b" d="M13110-2226h27.987" transform="translate(-12833.987 2354)"/><path class="b" d="M13110-2226h27.987" transform="translate(-12833.987 2338)"/><path class="b" d="M13110-2218h27.883" transform="translate(-12869.999 2354)"/><path class="b" d="M13110-2218h27.987" transform="translate(-12833.987 2354)"/><path class="b" d="M13110-2210h27.883" transform="translate(-12869.999 2354)"/><path class="b" d="M13110-2210h27.987" transform="translate(-12833.987 2354)"/></g></svg>