<?xml version="1.0" standalone="no"?>
<!DOCTYPE svg PUBLIC "-//W3C//DTD SVG 20010904//EN"
 "http://www.w3.org/TR/2001/REC-SVG-20010904/DTD/svg10.dtd">
<svg version="1.0" xmlns="http://www.w3.org/2000/svg"
 width="1168.000000pt" height="1168.000000pt" viewBox="0 0 1168.000000 1168.000000"
 preserveAspectRatio="xMidYMid meet">
<metadata>
Created by potrace 1.11, written by Peter Selinger 2001-2013
</metadata>
<g transform="translate(0.000000,1168.000000) scale(0.100000,-0.100000)"
fill="#000000" stroke="none">
<path d="M5720 8512 c0 -11 -6 -27 -13 -34 -16 -16 -107 -178 -107 -189 0 -5
-4 -9 -10 -9 -5 0 -10 -4 -10 -10 0 -5 -14 -33 -31 -62 -35 -59 -61 -104 -92
-163 -12 -22 -24 -42 -27 -45 -7 -7 -25 -40 -68 -120 -19 -36 -42 -76 -52 -90
-10 -14 -29 -47 -44 -75 -14 -27 -34 -63 -44 -80 -9 -16 -42 -73 -72 -125 -29
-52 -57 -96 -62 -98 -4 -2 -8 -12 -8 -22 0 -10 -4 -21 -9 -25 -6 -3 -16 -18
-24 -33 -7 -15 -25 -47 -39 -72 -37 -65 -207 -359 -231 -400 -11 -19 -31 -55
-44 -80 -23 -43 -35 -63 -60 -104 -10 -17 -14 -14 -37 30 -15 27 -40 72 -56
99 -16 28 -34 59 -40 70 -6 11 -24 43 -40 70 -17 28 -34 59 -39 71 -5 11 -23
41 -40 66 -17 25 -31 49 -31 52 0 4 -32 61 -71 129 -40 67 -82 140 -94 162
-12 22 -35 63 -51 91 -16 27 -76 132 -133 232 -57 101 -105 182 -106 180 -4
-4 -43 -73 -79 -138 -16 -30 -33 -56 -38 -58 -4 -2 -8 -7 -8 -12 0 -4 -43 -84
-96 -176 -53 -93 -104 -182 -112 -199 -9 -16 -18 -32 -22 -35 -3 -3 -12 -18
-20 -35 -28 -56 -215 -380 -227 -393 -7 -7 -13 -18 -13 -23 0 -8 -164 -299
-208 -369 -9 -14 -16 -27 -16 -30 -1 -3 -22 -41 -48 -84 -27 -44 -48 -84 -48
-90 0 -12 -37 49 -46 77 -4 9 -10 17 -15 17 -5 0 -9 4 -9 9 0 5 -31 64 -70
131 -38 67 -70 126 -70 131 0 5 -4 9 -8 9 -5 0 -14 16 -22 35 -8 19 -17 35
-22 35 -4 0 -8 4 -8 9 0 8 -299 536 -325 574 -12 17 -14 16 -29 -12 -9 -17
-23 -44 -32 -61 -8 -16 -20 -32 -25 -35 -5 -4 -7 -11 -4 -16 4 -5 2 -9 -3 -9
-5 0 -12 -8 -15 -17 -4 -10 -18 -38 -33 -63 -15 -25 -36 -61 -47 -80 -10 -19
-36 -64 -57 -100 -46 -79 -74 -128 -113 -200 -17 -30 -42 -73 -55 -95 -14 -22
-39 -65 -55 -95 -16 -30 -37 -63 -45 -72 -8 -10 -12 -18 -9 -18 3 0 -19 -41
-49 -90 -30 -50 -54 -92 -54 -95 0 -2 -19 -36 -43 -77 -24 -40 -55 -93 -69
-118 -24 -43 -44 -78 -89 -157 -12 -21 -36 -63 -52 -93 -17 -30 -34 -56 -39
-58 -4 -2 -8 -12 -8 -22 0 -10 -4 -20 -8 -22 -7 -3 -135 -222 -169 -288 -4 -8
-29 -52 -55 -97 -26 -44 -48 -86 -48 -92 0 -6 -4 -11 -10 -11 -5 0 -10 -4 -10
-10 0 -8 -51 -99 -90 -160 -5 -8 -16 -28 -25 -45 -8 -16 -28 -52 -45 -80 -16
-27 -34 -59 -40 -70 -5 -11 -23 -42 -40 -70 -17 -27 -33 -58 -37 -67 -3 -10
-9 -18 -13 -18 -7 0 -18 -29 -18 -47 0 -3 -4 -9 -10 -12 -5 -3 -20 -26 -34
-51 -14 -25 -35 -61 -46 -80 -12 -19 -26 -45 -31 -57 -6 -12 -22 -41 -36 -63
-27 -42 -33 -53 -100 -175 -21 -38 -42 -72 -45 -75 -3 -3 -12 -20 -19 -37 -8
-18 -17 -33 -22 -33 -5 0 -9 -9 -9 -20 0 -11 -3 -20 -8 -20 -4 0 -22 -28 -41
-62 -18 -35 -50 -92 -71 -128 -22 -36 -42 -72 -46 -80 -4 -8 -29 -52 -56 -97
-26 -45 -48 -85 -48 -89 0 -4 -6 -15 -14 -23 -7 -9 -27 -41 -43 -71 -17 -30
-40 -71 -51 -90 -12 -19 -26 -45 -31 -57 -6 -12 -22 -41 -36 -64 -15 -22 -38
-61 -51 -85 l-25 -44 5842 0 5841 0 -15 24 c-9 13 -30 50 -48 83 -17 32 -52
94 -78 138 -26 44 -50 87 -54 95 -4 8 -16 29 -27 45 -10 17 -27 46 -36 65 -10
19 -25 46 -35 60 -9 14 -29 48 -43 75 -15 28 -41 73 -57 100 -17 28 -33 58
-36 68 -3 9 -8 17 -12 17 -3 0 -13 15 -20 32 -13 29 -72 134 -101 178 -6 8
-13 22 -17 30 -4 8 -26 48 -50 88 -24 40 -43 77 -43 82 0 6 -4 10 -8 10 -5 0
-14 16 -22 35 -8 19 -17 35 -22 35 -4 0 -8 5 -8 10 0 6 -31 65 -70 131 -38 66
-70 122 -70 125 0 2 -18 33 -40 68 -22 35 -40 66 -40 69 0 3 -18 35 -40 71
-22 36 -40 70 -40 76 0 5 -4 10 -10 10 -5 0 -10 5 -10 11 0 6 -31 63 -68 127
-38 64 -72 124 -75 132 -4 8 -18 33 -32 55 -14 22 -28 47 -32 55 -4 8 -26 48
-50 88 -24 40 -43 77 -43 82 0 6 -4 10 -10 10 -5 0 -10 4 -10 9 0 5 -23 49
-51 98 -29 48 -64 111 -79 138 -15 28 -41 74 -58 103 -18 29 -32 57 -32 62 0
4 -3 10 -7 12 -8 3 -46 69 -68 115 -5 13 -13 23 -17 23 -5 0 -8 4 -8 9 0 7
-149 275 -190 341 -33 54 -110 195 -110 202 0 4 -4 8 -10 8 -5 0 -10 4 -10 10
0 8 -67 130 -100 180 -5 8 -17 31 -27 50 -9 19 -19 37 -22 40 -4 3 -13 19 -22
35 -9 17 -41 74 -72 127 -32 54 -57 102 -57 108 0 5 -4 10 -10 10 -5 0 -10 4
-10 9 0 5 -14 34 -32 64 l-31 55 -19 -23 c-10 -13 -18 -25 -18 -28 0 -2 -26
-49 -57 -103 -31 -55 -72 -128 -91 -164 -20 -36 -38 -67 -41 -70 -4 -3 -19
-30 -35 -60 -16 -30 -34 -62 -41 -70 -6 -8 -17 -26 -23 -40 -7 -14 -22 -41
-33 -60 -65 -109 -163 -286 -160 -289 1 -2 -2 -7 -7 -10 -5 -3 -23 -31 -39
-62 l-30 -56 -34 56 c-41 69 -148 258 -163 288 -6 13 -14 23 -18 23 -5 0 -8 5
-8 10 0 6 -12 29 -27 53 -14 23 -26 44 -26 47 0 3 -5 14 -12 25 -48 79 -75
126 -75 130 0 3 -18 34 -40 70 -22 36 -40 67 -40 70 0 3 -18 34 -40 69 -21 36
-52 88 -67 117 -15 28 -32 59 -38 68 -5 9 -28 48 -50 86 -22 39 -46 82 -55 96
-8 14 -37 66 -64 115 -27 49 -53 91 -56 94 -4 3 -17 26 -29 52 -12 26 -32 62
-44 80 -12 18 -28 45 -36 60 -16 32 -17 31 -63 -52 -14 -25 -78 -137 -143
-250 -65 -113 -126 -221 -137 -240 -11 -19 -27 -48 -37 -65 -10 -16 -29 -50
-43 -75 -14 -25 -35 -61 -47 -80 -11 -19 -28 -48 -36 -65 -9 -16 -24 -43 -34
-60 -20 -34 -43 -73 -91 -160 -18 -33 -43 -76 -55 -95 -12 -19 -35 -60 -52
-90 -46 -85 -57 -105 -64 -110 -4 -3 -9 -14 -13 -25 -3 -11 -15 -31 -25 -44
l-18 -24 -28 49 c-15 27 -35 60 -43 74 -9 14 -14 25 -12 25 3 0 -10 21 -28 47
-18 26 -32 49 -32 51 0 2 -41 76 -91 163 -50 88 -100 174 -110 192 -80 140
-104 181 -120 207 -10 17 -22 37 -26 45 -4 8 -58 105 -122 215 -63 110 -124
218 -135 240 -12 21 -27 45 -33 53 -7 7 -16 24 -19 38 -3 13 -10 24 -14 24 -4
0 -10 8 -13 18 -4 9 -18 37 -33 62 -29 49 -52 89 -85 148 -28 50 -81 142 -96
167 -7 11 -17 29 -22 40 -6 11 -22 38 -35 60 -14 22 -35 59 -47 83 -29 55 -49
73 -49 44z"/>
</g>
</svg>
