<svg xmlns="http://www.w3.org/2000/svg" viewBox="0 0 26.198 32.6"><defs><style>.a{fill:#fff;}</style></defs><g transform="translate(0 0)"><path class="a" d="M13.152,32.59c-7.6-.228-5.135-3.687-4.383-6.675a8.713,8.713,0,0,1-3.177-.08,3.719,3.719,0,0,1-2.821-2.364A7.667,7.667,0,0,0,.617,20.756c-.6-.381-.712-.906-.548-1.045s.533-.119,1.458,0a4.063,4.063,0,0,1,2.262,1.812,5.2,5.2,0,0,0,2.993,1.812,2.589,2.589,0,0,0,2.2-.189,6.572,6.572,0,0,1,.467-2.328C4.413,19.532.783,15.907.783,11.635A8.288,8.288,0,0,1,3.4,5.746l-.314-.539a5.332,5.332,0,0,1-.373-2.84A5.861,5.861,0,0,1,3.284.59,1.071,1.071,0,0,1,3.563.182c.229-.23,3.22.433,4.339,1.507.329.315.665.63.967.924A16.512,16.512,0,0,1,18,2.579l.419-.651A5.331,5.331,0,0,1,20.777.307a5.859,5.859,0,0,1,1.842-.3,1.068,1.068,0,0,1,.49.063c.309.1,1.076,3.066.628,4.551-.114.379-.2.721-.264,1.022A8.327,8.327,0,0,1,26.2,11.635c0,4.348-3.76,8.026-8.937,9.25a10.022,10.022,0,0,1,.466,3.762c0,3.095,3.931,7.953-3.94,7.953Q13.481,32.6,13.152,32.59Z" transform="translate(0)"/></g></svg>