<svg xmlns="http://www.w3.org/2000/svg" viewBox="0 0 184.008 183.136"><defs><style>.a{fill:#fff;}</style></defs><g transform="translate(75.542 74.657)"><g transform="translate(-128.334 -128.33)"><path class="a" d="M212.908,117.512l-9.345-16.191,5.568-9.642a91.719,91.719,0,0,0-20.226-31.094h-9.52L171.33,46.623a91.636,91.636,0,0,0-35-12.523l5.779,10.012L132.764,60.3H114.078l-9.345-16.191L110.516,34.1q-3.939.555-7.835,1.454L99.242,41.5H85.149a91.5,91.5,0,0,0-11.717,6.443L66.314,60.3H58.208q-2.789,2.8-5.287,5.779H66.314l9.341,16.191L66.314,98.459h-18.7l-7.336-12.7A92.01,92.01,0,0,0,31.43,123h2.5l9.341,16.191-7.719,13.369a91.385,91.385,0,0,0,14.1,27.657H66.876l9.345,16.191-3.3,5.736a92.046,92.046,0,0,0,65.1,13.921l-.324-.595,9.341-16.191h18.686l3.364,5.835q2.68-1.53,5.287-3.258l-3.152-5.459,9.345-16.191h16.647a91.861,91.861,0,0,0,17.9-62.7Zm-14.837-13.293,9.345,16.191L198.072,136.6H179.386l-9.341-16.191,9.341-16.191ZM146.441,47h18.673l9.345,16.191-9.345,16.191H146.441L137.1,63.195ZM48.19,136.584l-9.341-16.191L48.19,104.2H66.876l9.345,16.191-9.345,16.191Zm33.523,56.927L72.368,177.32l9.345-16.191H100.4l9.341,16.191L100.4,193.512Zm51.052,19.073H114.078l-9.345-16.191,9.345-16.191h18.686l9.341,16.191Zm32.941-56.917h-18.59l-4.91,2.6h-.1l-9.341,16.191H114.078l-9.345-16.191h-.089l-4.335-2.888h-18.6l-9.345-16.191L81.712,123h.1l-1.157-5.492h-.1l-9.341-16.191,9.341-16.191h18.59l5.5-2.865h.1l9.345-16.191h18.679l9.341,16.191h.1l4.332,2.888h18.577l9.345,16.191-9.1,15.768.241.413v5.766h.1l9.345,16.191Zm33.523,18.782H180.542L171.2,158.258l9.345-16.191h18.686l9.341,16.191Z" transform="translate(21.361 19.573)"/><path class="a" d="M285.641,248.139l-14.209-6.278a3.965,3.965,0,0,1-2.006-5.244l8.238-18.227-33.7,12.8a7.177,7.177,0,0,0-1.467,13.6l13.862,6.113a3.965,3.965,0,0,1,2.006,5.244l-8.39,18.564,34.1-12.95a7.161,7.161,0,0,0,5.231-4.157h0a7.177,7.177,0,0,0-3.658-9.467Z" transform="translate(-117.088 -103.822)"/></g></g></svg>