<svg xmlns="http://www.w3.org/2000/svg" viewBox="0 0 169.269 44.583"><defs><style>.a{fill:#fff;}</style></defs><path class="a" d="M0,0V20.42H20.42V0ZM7.37,17.19H4.57V7.55h2.8ZM7.23,5.75A1.8,1.8,0,0,1,6,6.2a1.8,1.8,0,0,1-1.25-.44,1.44,1.44,0,0,1-.49-1.12,1.44,1.44,0,0,1,.49-1.11A1.76,1.76,0,0,1,6,3.08a1.89,1.89,0,0,1,1.26.43,1.4,1.4,0,0,1,.48,1.08,1.54,1.54,0,0,1-.51,1.16Zm8,11.43a5.26,5.26,0,0,1-1.27.16,3.78,3.78,0,0,1-2.66-.88,3.36,3.36,0,0,1-.94-2.58v-4H8.82V7.76h1.49V5.41h2.8V7.76h2.4V9.91h-2.4v3.93a1.3,1.3,0,0,0,.31.94,1.16,1.16,0,0,0,.89.33,1.82,1.82,0,0,0,1.13-.36l.75,2a2.93,2.93,0,0,1-1.01.43Z"/><path class="a" d="M29.26,42.73a14,14,0,0,1-5.5-5.22,14.35,14.35,0,0,1-2-7.55,14.37,14.37,0,0,1,2-7.55,14.1,14.1,0,0,1,5.5-5.22,16.44,16.44,0,0,1,7.88-1.88,16.37,16.37,0,0,1,6.65,1.3,13.24,13.24,0,0,1,5,3.72l-4.21,3.89a9,9,0,0,0-7.12-3.32,9.49,9.49,0,0,0-4.7,1.15,8.21,8.21,0,0,0-3.21,3.22A9.43,9.43,0,0,0,28.39,30a9.47,9.47,0,0,0,1.16,4.7,8.28,8.28,0,0,0,3.21,3.22A9.59,9.59,0,0,0,37.46,39a9,9,0,0,0,7.12-3.36l4.21,3.88a13,13,0,0,1-5,3.77,16.69,16.69,0,0,1-6.68,1.29,16.24,16.24,0,0,1-7.85-1.85Z"/><path class="a" d="M61.84,22.84A11.33,11.33,0,0,1,66.27,22v5.83c-.7-.06-1.17-.08-1.41-.08a5.74,5.74,0,0,0-4.25,1.52,6.1,6.1,0,0,0-1.54,4.55V44.13H52.76V22.35h6v2.88a7,7,0,0,1,3.08-2.39Z"/><path class="a" d="M92.14,22.35V44.13h-6V41.54a8.47,8.47,0,0,1-3,2.16,9.39,9.39,0,0,1-3.76.75A9.25,9.25,0,0,1,72.59,42q-2.5-2.46-2.51-7.32V22.35h6.31V33.73c0,3.5,1.47,5.26,4.42,5.26a4.73,4.73,0,0,0,3.64-1.48,6.26,6.26,0,0,0,1.37-4.39V22.35Z"/><path class="a" d="M120.18,14.1v30h-6V41.62a8.31,8.31,0,0,1-6.8,2.83,11.37,11.37,0,0,1-5.56-1.37,9.92,9.92,0,0,1-3.91-3.93,12,12,0,0,1-1.41-5.91,12,12,0,0,1,1.41-5.91,9.83,9.83,0,0,1,3.91-3.92A11.27,11.27,0,0,1,107.35,22a8.29,8.29,0,0,1,6.52,2.63V14.1Zm-7.77,23.53A6,6,0,0,0,114,33.24a6,6,0,0,0-1.58-4.39,5.27,5.27,0,0,0-4-1.64,5.34,5.34,0,0,0-4,1.64,6.07,6.07,0,0,0-1.58,4.39,6.06,6.06,0,0,0,1.58,4.39,5.3,5.3,0,0,0,4,1.64,5.24,5.24,0,0,0,3.99-1.64Z"/><path class="a" d="M147.22,35H130.75a5.12,5.12,0,0,0,2.1,3.2A7,7,0,0,0,137,39.39a8.57,8.57,0,0,0,3-.5,7.31,7.31,0,0,0,2.44-1.6l3.36,3.64q-3.08,3.52-9,3.52A14.32,14.32,0,0,1,130.3,43a10.57,10.57,0,0,1-4.37-4,11,11,0,0,1-1.54-5.79,11.18,11.18,0,0,1,1.52-5.77,10.63,10.63,0,0,1,4.17-4,12.88,12.88,0,0,1,11.72-.06,10,10,0,0,1,4.06,3.94,11.75,11.75,0,0,1,1.48,6C147.34,33.4,147.3,34,147.22,35Zm-14.77-7a5.16,5.16,0,0,0-1.78,3.32h10.72a5.19,5.19,0,0,0-1.78-3.3,5.33,5.33,0,0,0-3.56-1.23,5.42,5.42,0,0,0-3.6,1.21Z"/><path class="a" d="M153.57,43.78a13.54,13.54,0,0,1-4.12-1.68l2.1-4.53a13.28,13.28,0,0,0,3.52,1.52,14.86,14.86,0,0,0,4.05.59c2.67,0,4-.66,4-2a1.4,1.4,0,0,0-1.1-1.33,16.271,16.271,0,0,0-3.36-.69,32.559,32.559,0,0,1-4.41-.93,6.82,6.82,0,0,1-3-1.86,5.3,5.3,0,0,1-1.25-3.8,6,6,0,0,1,1.2-3.66,7.57,7.57,0,0,1,3.48-2.49,14.9,14.9,0,0,1,5.4-.89,21,21,0,0,1,4.59.51,12.74,12.74,0,0,1,3.79,1.39l-2.11,4.49a12.62,12.62,0,0,0-6.27-1.61,6.52,6.52,0,0,0-3,.56,1.68,1.68,0,0,0-1,1.46,1.46,1.46,0,0,0,1.09,1.42,20,20,0,0,0,3.49.77A35.72,35.72,0,0,1,165,32a6.53,6.53,0,0,1,3,1.84,5.21,5.21,0,0,1,1.26,3.72,5.74,5.74,0,0,1-1.22,3.6,7.7,7.7,0,0,1-3.54,2.45,15.75,15.75,0,0,1-5.52.87A21,21,0,0,1,153.57,43.78Z"/></svg>