<svg id="Layer_1" data-name="Layer 1" xmlns="http://www.w3.org/2000/svg" xmlns:xlink="http://www.w3.org/1999/xlink" viewBox="0 0 288.38 160.76"><defs><style>.cls-1{isolation:isolate;}.cls-2{fill:#fff;}.cls-3{fill:url(#linear-gradient);}.cls-4{fill:url(#linear-gradient-2);}.cls-5{fill:url(#linear-gradient-3);}.cls-6{fill:url(#linear-gradient-4);}.cls-7{fill:url(#linear-gradient-5);}</style><linearGradient id="linear-gradient" x1="-807.54" y1="627.24" x2="-807.54" y2="626.24" gradientTransform="matrix(88.61, 0, 0, -77.54, 71801.25, 48657.3)" gradientUnits="userSpaceOnUse"><stop offset="0" stop-color="#9600fc"/><stop offset="1" stop-color="#4b007e"/></linearGradient><linearGradient id="linear-gradient-2" x1="-808.34" y1="627.55" x2="-808.93" y2="626.96" gradientTransform="matrix(101.27, 0, 0, -88.61, 82111.44, 55657.37)" gradientUnits="userSpaceOnUse"><stop offset="0" stop-color="#f90000"/><stop offset="1" stop-color="#b20101"/></linearGradient><linearGradient id="linear-gradient-3" x1="-809.29" y1="628.04" x2="-809.87" y2="627.48" gradientTransform="matrix(113.94, 0, 0, -99.69, 92417.32, 62658.05)" gradientUnits="userSpaceOnUse"><stop offset="0" stop-color="#fc0"/><stop offset="0.44" stop-color="#f1b208"/><stop offset="1" stop-color="#eba70c"/></linearGradient><linearGradient id="linear-gradient-4" x1="-808.34" y1="627.55" x2="-808.98" y2="626.89" gradientTransform="matrix(101.27, 0, 0, -88.61, 82040.82, 55657.37)" gradientUnits="userSpaceOnUse"><stop offset="0" stop-color="#fefe00"/><stop offset="0.3" stop-color="#e6e60a"/><stop offset="1" stop-color="#d8d812"/></linearGradient><linearGradient id="linear-gradient-5" x1="-807.32" y1="626.72" x2="-808.02" y2="626.22" gradientTransform="matrix(88.61, 0, 0, -77.54, 71673.86, 48657.3)" gradientUnits="userSpaceOnUse"><stop offset="0" stop-color="#0098ff"/><stop offset="0.09" stop-color="#0095f9"/><stop offset="1" stop-color="#004c80"/></linearGradient></defs><title>logo-new</title><g class="cls-1"><g class="cls-1"><path class="cls-2" d="M1.79,97.13A5.73,5.73,0,0,1,0,92.86a5.88,5.88,0,0,1,1.79-4.31,6.11,6.11,0,0,1,4.51-1.8,6.34,6.34,0,0,1,4.52,1.7,5.59,5.59,0,0,1,1.79,4.22,6,6,0,0,1-1.79,4.41,6.14,6.14,0,0,1-4.52,1.8A6.19,6.19,0,0,1,1.79,97.13Zm-.14,11.64H11v51.41H1.65Z"/><path class="cls-2" d="M57.62,157.17a13.74,13.74,0,0,1-5,2.67,20.84,20.84,0,0,1-6.21.92q-7.76,0-12-4.17t-4.27-11.93V116.43H21.34v-7.66h8.73V97.52h9.31v11.25H54.12v7.66H39.38v27.84c0,2.78.69,4.92,2.09,6.41a7.78,7.78,0,0,0,6,2.23,11.22,11.22,0,0,0,7.28-2.43Z"/><path class="cls-2" d="M85,110.61a26.09,26.09,0,0,1,11.54-2.32v9a17,17,0,0,0-2.13-.1q-7.57,0-11.88,4.51t-4.32,12.85v25.61H68.87V108.77h8.92v8.63A16,16,0,0,1,85,110.61Z"/><path class="cls-2" d="M142.93,113.52q5.67,5.25,5.67,15.62v31h-8.83v-6.79a14.63,14.63,0,0,1-6.64,5.48,25.38,25.38,0,0,1-10.23,1.89q-8.64,0-13.83-4.17a14.33,14.33,0,0,1-.24-21.87q5-4.12,15.71-4.12h14.75v-1.85c0-4-1.17-7.08-3.49-9.21s-5.76-3.2-10.29-3.2a27.25,27.25,0,0,0-8.92,1.5,22.92,22.92,0,0,0-7.37,4l-3.88-7a28.39,28.39,0,0,1,9.5-4.9,39.86,39.86,0,0,1,11.74-1.69Q137.25,108.29,142.93,113.52Zm-9.27,37.69a13.6,13.6,0,0,0,5.63-6.74v-7.18H124.93q-11.84,0-11.83,8a7.17,7.17,0,0,0,3,6.11q3,2.24,8.34,2.24A17.32,17.32,0,0,0,133.66,151.21Z"/><path class="cls-2" d="M242.69,108.77l-19.21,51.41h-8.92l-14.84-39-15,39h-8.93l-19.11-51.41h8.83l14.94,40.94,15.52-40.94h7.85L219,149.9l15.33-41.13Z"/><path class="cls-2" d="M254,159.07a26.54,26.54,0,0,1-9.12-4.32l3.88-7.37a27.68,27.68,0,0,0,8.25,3.88,33.9,33.9,0,0,0,9.79,1.45q12.23,0,12.23-7a4.54,4.54,0,0,0-1.65-3.69,10.68,10.68,0,0,0-4.13-2c-1.64-.42-4-.88-7-1.4a69,69,0,0,1-10.13-2.23,15.71,15.71,0,0,1-6.75-4.27q-2.81-3-2.81-8.44a13.17,13.17,0,0,1,5.82-11.2q5.82-4.23,15.62-4.22a43,43,0,0,1,10.28,1.26,27.7,27.7,0,0,1,8.44,3.39l-4,7.37a26.78,26.78,0,0,0-14.84-4.07q-5.91,0-9,1.94a5.85,5.85,0,0,0-3.1,5.14,4.92,4.92,0,0,0,1.74,4,11,11,0,0,0,4.32,2.13c1.71.46,4.12,1,7.22,1.55a81.21,81.21,0,0,1,10,2.28,15,15,0,0,1,6.55,4.13q2.71,2.91,2.72,8.14a12.85,12.85,0,0,1-6,11.11q-6,4.13-16.25,4.12A43.12,43.12,0,0,1,254,159.07Z"/></g></g><path class="cls-3" d="M204.59,99.69h81.23L241.51,22.15l-44.3,77.54Z"/><path class="cls-4" d="M171,99.69h92.83L213.23,11.08,162.59,99.69Z"/><path class="cls-5" d="M128.38,99.69H232.82L175.84,0l-57,99.69Z"/><path class="cls-6" d="M100.41,99.69h92.84L142.61,11.08,92,99.69Z"/><path class="cls-7" d="M77.21,99.69h81.23L114.13,22.15,69.82,99.69Z"/></svg>