<svg xmlns="http://www.w3.org/2000/svg" xmlns:xlink="http://www.w3.org/1999/xlink" viewBox="0 0 73 33.692"><defs><style>.a{fill:url(#a);}.b{fill:url(#b);}.c{fill:url(#c);}.d{fill:url(#d);}.e{fill:url(#e);}</style><linearGradient id="a" x1="0.5" x2="0.5" y2="1" gradientUnits="objectBoundingBox"><stop offset="0" stop-color="#9600fc"/><stop offset="1" stop-color="#4b007e"/></linearGradient><linearGradient id="b" x1="0.787" y1="0.352" x2="0.192" y2="0.943" gradientUnits="objectBoundingBox"><stop offset="0" stop-color="#f90000"/><stop offset="1" stop-color="#b20101"/></linearGradient><linearGradient id="c" x1="0.747" y1="0.439" x2="0.17" y2="1" gradientUnits="objectBoundingBox"><stop offset="0" stop-color="#fc0"/><stop offset="0.438" stop-color="#f1b208"/><stop offset="1" stop-color="#eba70c"/></linearGradient><linearGradient id="d" x1="0.779" y1="0.341" x2="0.134" y2="1" gradientUnits="objectBoundingBox"><stop offset="0" stop-color="#fefe00"/><stop offset="0.296" stop-color="#e6e60a"/><stop offset="1" stop-color="#d8d812"/></linearGradient><linearGradient id="e" x1="0.708" y1="0.5" x2="0" y2="1" gradientUnits="objectBoundingBox"><stop offset="0" stop-color="#0098ff"/><stop offset="0.094" stop-color="#0095f9"/><stop offset="1" stop-color="#004c80"/></linearGradient></defs><g transform="translate(-186 -254.308)"><path class="a" d="M4423.5,1048.205h27.453L4435.974,1022,4421,1048.205Z" transform="translate(-4191.949 -760.205)"/><path class="b" d="M4423.853,1051.949h31.375L4438.114,1022,4421,1051.949Z" transform="translate(-4203.648 -763.949)"/><path class="c" d="M4424.209,1055.692h35.3L4440.253,1022,4421,1055.692Z" transform="translate(-4218.422 -767.692)"/><path class="d" d="M4423.853,1051.949h31.375L4438.114,1022,4421,1051.949Z" transform="translate(-4227.513 -763.949)"/><path class="e" d="M4423.5,1048.205h27.453L4435.974,1022,4421,1048.205Z" transform="translate(-4235 -760.205)"/></g></svg>