<svg xmlns="http://www.w3.org/2000/svg" xmlns:xlink="http://www.w3.org/1999/xlink" viewBox="0 0 299 184.182"><defs><style>.a{fill:#fff;font-size:97px;font-family:Montserrat-Medium, Montserrat;font-weight:500;}.b{fill:url(#a);}.c{fill:url(#b);}.d{fill:url(#c);}.e{fill:url(#d);}.f{fill:url(#e);}</style><linearGradient id="a" x1="0.5" x2="0.5" y2="1" gradientUnits="objectBoundingBox"><stop offset="0" stop-color="#9600fc"/><stop offset="1" stop-color="#4b007e"/></linearGradient><linearGradient id="b" x1="0.787" y1="0.352" x2="0.192" y2="0.943" gradientUnits="objectBoundingBox"><stop offset="0" stop-color="#f90000"/><stop offset="1" stop-color="#b20101"/></linearGradient><linearGradient id="c" x1="0.747" y1="0.439" x2="0.17" y2="1" gradientUnits="objectBoundingBox"><stop offset="0" stop-color="#fc0"/><stop offset="0.438" stop-color="#f1b208"/><stop offset="1" stop-color="#eba70c"/></linearGradient><linearGradient id="d" x1="0.779" y1="0.341" x2="0.134" y2="1" gradientUnits="objectBoundingBox"><stop offset="0" stop-color="#fefe00"/><stop offset="0.296" stop-color="#e6e60a"/><stop offset="1" stop-color="#d8d812"/></linearGradient><linearGradient id="e" x1="0.708" y1="0.5" x2="0" y2="1" gradientUnits="objectBoundingBox"><stop offset="0" stop-color="#0098ff"/><stop offset="0.094" stop-color="#0095f9"/><stop offset="1" stop-color="#004c80"/></linearGradient></defs><g transform="translate(-105 -254.308)"><text class="a" transform="translate(105 414.49)"><tspan x="0" y="0">itraws</tspan></text><g transform="translate(-4 0)"><path class="b" d="M4428.385,1099.539h81.23L4465.308,1022,4421,1099.539Z" transform="translate(-4107.615 -745.539)"/><path class="c" d="M4429.44,1110.615h92.834L4471.638,1022,4421,1110.615Z" transform="translate(-4142.231 -756.615)"/><path class="d" d="M4430.5,1121.692h104.439L4477.967,1022,4421,1121.692Z" transform="translate(-4185.945 -767.692)"/><path class="e" d="M4429.44,1110.615h92.834L4471.638,1022,4421,1110.615Z" transform="translate(-4212.847 -756.615)"/><path class="f" d="M4428.385,1099.539h81.23L4465.308,1022,4421,1099.539Z" transform="translate(-4235 -745.539)"/></g></g></svg>