<svg id="Layer_1" data-name="Layer 1" xmlns="http://www.w3.org/2000/svg" viewBox="0 0 490.37 242.31"><defs><style>.cls-1{isolation:isolate;}.cls-2{fill:#fff;}.cls-3{fill:none;stroke:#fff;stroke-miterlimit:10;stroke-width:1.44px;}</style></defs><title>victoria-analytica</title><g class="cls-1"><g class="cls-1"><path class="cls-2" d="M20.52,229.41H15.06L0,189.81H5.16l10.08,27.36L17.76,225l2.52-7.8,10.08-27.42h5.16Z"/><path class="cls-2" d="M41.43,192.66a3.94,3.94,0,1,1,2.61,1A3.53,3.53,0,0,1,41.43,192.66Zm5,36.75h-4.8v-30h4.8Z"/><path class="cls-2" d="M76.71,200.88a13.71,13.71,0,0,1,4.83,5.91L77,209Q75.06,203,69,203a8.72,8.72,0,0,0-7,3q-2.55,3-2.55,8.37T62,222.78a8.72,8.72,0,0,0,7,3,9.15,9.15,0,0,0,5.61-1.59,7.49,7.49,0,0,0,2.79-4.59l4.44,1.56A13.52,13.52,0,0,1,77,227.7,13.29,13.29,0,0,1,69.12,230q-6.78,0-10.65-4.14T54.6,214.41q0-7.32,3.87-11.46t10.65-4.14A13.33,13.33,0,0,1,76.71,200.88Z"/><path class="cls-2" d="M107.52,227.31a11.13,11.13,0,0,1-7.74,2.7,8.85,8.85,0,0,1-6-2q-2.31-2-2.37-6.06V203.55h-6v-4.14h6v-7.2l4.8-1.32v8.52h11.1v4.14H96.24v17.58a4.18,4.18,0,0,0,1.23,3.27,4.7,4.7,0,0,0,3.27,1.11,7,7,0,0,0,5.1-2.22Z"/><path class="cls-2" d="M136.47,203q3.87,4.14,3.87,11.46t-3.87,11.46Q132.6,230,125.82,230t-10.65-4.14q-3.87-4.14-3.87-11.46T115.17,203q3.87-4.14,10.65-4.14T136.47,203ZM118.68,206q-2.58,3.06-2.58,8.4t2.58,8.4a9.86,9.86,0,0,0,14.28,0q2.58-3.06,2.58-8.4T133,206a9.86,9.86,0,0,0-14.28,0Z"/><path class="cls-2" d="M166,199.41l-1,4.68a7.93,7.93,0,0,0-3.78-.78,7.15,7.15,0,0,0-3.75,1.11,8.25,8.25,0,0,0-3,3.36,11.64,11.64,0,0,0-1.17,5.43v16.2h-4.8v-30h3.9l.66,4.92q2.52-5.52,9.6-5.52A7.25,7.25,0,0,1,166,199.41Z"/><path class="cls-2" d="M171.63,192.66a3.94,3.94,0,1,1,2.61,1A3.53,3.53,0,0,1,171.63,192.66Zm5,36.75h-4.8v-30h4.8Z"/></g><g class="cls-1"><path class="cls-2" d="M213.24,225.63l-.3,3.78a10.62,10.62,0,0,1-3.6.6,6,6,0,0,1-3.69-1,5,5,0,0,1-1.71-3.42,9,9,0,0,1-4.05,3.27,13.83,13.83,0,0,1-5.61,1.17,12.23,12.23,0,0,1-7.32-2.07,6.9,6.9,0,0,1-2.88-6,7.47,7.47,0,0,1,3-5.91q3-2.49,8.7-3.45l8-1.32v-1.68a6.37,6.37,0,0,0-1.86-4.8,7.11,7.11,0,0,0-5.16-1.8,8.77,8.77,0,0,0-8.58,5.7l-3.54-2.58a10.11,10.11,0,0,1,4.47-5.34,14.48,14.48,0,0,1,7.65-2,13.37,13.37,0,0,1,8.58,2.58q3.24,2.58,3.24,7.62v14.76a2.2,2.2,0,0,0,.54,1.62,2.39,2.39,0,0,0,1.74.54A9.86,9.86,0,0,0,213.24,225.63ZM201,224a5.41,5.41,0,0,0,2.73-4.68v-4.14L197,216.45a15.84,15.84,0,0,0-6,2.07,4,4,0,0,0-2,3.45,3.25,3.25,0,0,0,1.44,2.85,7,7,0,0,0,4,1A11.56,11.56,0,0,0,201,224Z"/></g><g class="cls-1"><path class="cls-2" d="M260,218.43H242.1l-4.2,11h-5l15.42-39.6H254l15.36,39.6h-5.1Zm-1.74-4.5-5.34-14-1.86-5.52H251l-1.74,5.34-5.4,14.22Z"/><path class="cls-2" d="M298.31,201.75q3.3,2.94,3.3,8.46v19.2h-4.8V211.89c0-3.12-.66-5.38-2-6.78a7.1,7.1,0,0,0-5.37-2.1,9.86,9.86,0,0,0-4.5,1.05,8.24,8.24,0,0,0-3.46,3.42,12,12,0,0,0-1.34,6v16h-4.8v-30h4.19l.31,4.68a9.27,9.27,0,0,1,4.14-4,13.29,13.29,0,0,1,5.94-1.29A12.15,12.15,0,0,1,298.31,201.75Z"/><path class="cls-2" d="M338.33,225.63l-.3,3.78a10.62,10.62,0,0,1-3.6.6,6,6,0,0,1-3.69-1,5,5,0,0,1-1.71-3.42,9,9,0,0,1-4,3.27,13.83,13.83,0,0,1-5.61,1.17,12.23,12.23,0,0,1-7.32-2.07,6.9,6.9,0,0,1-2.88-6,7.47,7.47,0,0,1,3-5.91q3-2.49,8.7-3.45l8-1.32v-1.68a6.37,6.37,0,0,0-1.86-4.8,7.11,7.11,0,0,0-5.16-1.8,8.77,8.77,0,0,0-8.58,5.7l-3.54-2.58a10.11,10.11,0,0,1,4.47-5.34,14.48,14.48,0,0,1,7.65-2,13.37,13.37,0,0,1,8.58,2.58q3.24,2.58,3.24,7.62v14.76a2.2,2.2,0,0,0,.54,1.62,2.39,2.39,0,0,0,1.74.54A9.86,9.86,0,0,0,338.33,225.63ZM326.12,224a5.41,5.41,0,0,0,2.73-4.68v-4.14l-6.72,1.26a15.84,15.84,0,0,0-6,2.07,4,4,0,0,0-2,3.45,3.25,3.25,0,0,0,1.44,2.85,7,7,0,0,0,4,1A11.56,11.56,0,0,0,326.12,224Z"/></g><g class="cls-1"><path class="cls-2" d="M348.53,221.37a5.27,5.27,0,0,0,.69,3.15,3.11,3.11,0,0,0,2.55.87,11.66,11.66,0,0,0,2.19-.18,13.54,13.54,0,0,0,2.19-.66l-.78,4.62a11.26,11.26,0,0,1-4.44.84q-3.66,0-5.43-2T343.73,222V185.61h4.8Z"/></g><g class="cls-1"><path class="cls-2" d="M372.53,234.45a15.08,15.08,0,0,1-3.9,6.09,8.52,8.52,0,0,1-5.58,1.77,10.5,10.5,0,0,1-3.81-.6,7.77,7.77,0,0,1-2.79-1.92l1.68-4.08a5.66,5.66,0,0,0,4.86,2.4,4.9,4.9,0,0,0,3.09-1.05,8.49,8.49,0,0,0,2.37-3.81l1.56-3.9-12.54-29.94h5.46l7.5,19.56,1.86,5.34,2.16-5.94,7-19h5.16Z"/><path class="cls-2" d="M410.45,227.31a11.13,11.13,0,0,1-7.74,2.7,8.85,8.85,0,0,1-6-2q-2.31-2-2.37-6.06V203.55h-6v-4.14h6v-7.2l4.8-1.32v8.52h11.1v4.14h-11.1v17.58a4.18,4.18,0,0,0,1.23,3.27,4.7,4.7,0,0,0,3.27,1.11,7,7,0,0,0,5.1-2.22Z"/><path class="cls-2" d="M415.88,192.66a3.94,3.94,0,1,1,2.61,1A3.53,3.53,0,0,1,415.88,192.66Zm5,36.75h-4.8v-30h4.8Z"/><path class="cls-2" d="M451.16,200.88a13.71,13.71,0,0,1,4.83,5.91L451.43,209q-1.92-5.94-8-5.94a8.72,8.72,0,0,0-7.05,3q-2.55,3-2.55,8.37t2.55,8.37a8.72,8.72,0,0,0,7.05,3,9.15,9.15,0,0,0,5.61-1.59,7.49,7.49,0,0,0,2.79-4.59l4.44,1.56a13.52,13.52,0,0,1-4.8,6.51,13.29,13.29,0,0,1-7.92,2.31q-6.78,0-10.65-4.14t-3.87-11.46q0-7.32,3.87-11.46t10.65-4.14A13.33,13.33,0,0,1,451.16,200.88Z"/></g><g class="cls-1"><path class="cls-2" d="M490.37,225.63l-.3,3.78a10.62,10.62,0,0,1-3.6.6,6,6,0,0,1-3.69-1,5,5,0,0,1-1.71-3.42,9,9,0,0,1-4.05,3.27,13.83,13.83,0,0,1-5.61,1.17,12.23,12.23,0,0,1-7.32-2.07,6.9,6.9,0,0,1-2.88-6,7.47,7.47,0,0,1,3-5.91q3-2.49,8.7-3.45l8-1.32v-1.68a6.37,6.37,0,0,0-1.86-4.8,7.11,7.11,0,0,0-5.16-1.8,8.77,8.77,0,0,0-8.58,5.7l-3.54-2.58a10.11,10.11,0,0,1,4.47-5.34,14.48,14.48,0,0,1,7.65-2,13.37,13.37,0,0,1,8.58,2.58q3.24,2.58,3.24,7.62v14.76a2.2,2.2,0,0,0,.54,1.62,2.39,2.39,0,0,0,1.74.54A9.86,9.86,0,0,0,490.37,225.63ZM478.16,224a5.41,5.41,0,0,0,2.73-4.68v-4.14l-6.72,1.26a15.84,15.84,0,0,0-6,2.07,4,4,0,0,0-2,3.45,3.25,3.25,0,0,0,1.44,2.85,7,7,0,0,0,4,1A11.56,11.56,0,0,0,478.16,224Z"/></g></g><line class="cls-3" x1="372.19" y1="103.66" x2="353.1" y2="106.68"/><path class="cls-3" d="M327.53,173.88l-64.67-38.1L245.93,80.41"/><path class="cls-3" d="M245.2,79.58l64.88,37.13,29.13-48.5-27.28-9.8"/><path class="cls-3" d="M341.06,70.47l16.36,55.76L327.77,170.7l-18.18-55.5Z"/><path class="cls-3" d="M381.11,1.17,281.74,27.62,249.26,76.87,352.79,46.11Z"/><path class="cls-3" d="M404.1,57.32l-20-55L353.93,47.53l18,54.28Z"/><line class="cls-3" x1="121.95" y1="103.66" x2="141.04" y2="106.68"/><path class="cls-3" d="M166.61,173.88l64.7-38.1,16.9-55.37"/><path class="cls-3" d="M249,79.58l-64.91,37.13-29.13-48.5,27.28-9.8"/><path class="cls-3" d="M153.08,70.47l-16.33,55.76,29.62,44.47,18.2-55.5Z"/><path class="cls-3" d="M113,1.17,212.4,27.62l32.49,49.25L141.35,46.11Z"/><path class="cls-3" d="M90,57.32l20-55,30.17,45.17-18.05,54.28Z"/></svg>